PathFileType	4	(X/Y/Z)	N:\Shared_Data\Ergonomics\New Model Testing\10-03-21\Test Cal 01.trc																																																																																																																																																													
DataRate	CameraRate	NumFrames	NumMarkers	Units	OrigDataRate	OrigDataStartFrame	OrigNumFrames	
100	100	6	59	mm	100	1390	148
Frame#	Time	R_Knee_Med			R_Knee_Lat			R_Thigh_Upper			R_Thigh_Front			R_Thigh_Rear			L_Knee_Med			L_Knee_Lat			L_Thigh_Upper			L_Thigh_Front			L_Thigh_Rear			R_Ankle_Med			R_Ankle_Lat			R_Shank_Upper			R_Shank_Front			R_Shank_Rear			L_Ankle_Med			L_Ankle_Lat			L_Shank_Upper			L_Shank_Front			L_Shank_Rear			R_Heel			R_MTP1			R_MTP5			L_Heel			L_MTP1			L_MTP5			V_Sacral			R_Pelvis			R_ASIS			L_ASIS			L_Pelvis			Clavicle			Chest			R_Acromium			L_Acromium			R_Elbow			R_Arm_Parallel			R_Arm_Adjacent			L_Elbow			L_Arm_Parallel			L_Arm_Adjacent			R_Forearm2			R_Forearm1			R_Forearm_Base			L_Forearm2			L_Forearm1			L_Forearm_Base			R_Hand_Lower			R_Hand_Med			R_Hand_Lat			L_Hand_Lower			L_Hand_Med			L_Hand_Lat			LAJC			RAJC			LHJC			RHJC			LKJC			RKJC			
		X1	Y1	Z1	X2	Y2	Z2	X3	Y3	Z3	X4	Y4	Z4	X5	Y5	Z5	X6	Y6	Z6	X7	Y7	Z7	X8	Y8	Z8	X9	Y9	Z9	X10	Y10	Z10	X11	Y11	Z11	X12	Y12	Z12	X13	Y13	Z13	X14	Y14	Z14	X15	Y15	Z15	X16	Y16	Z16	X17	Y17	Z17	X18	Y18	Z18	X19	Y19	Z19	X20	Y20	Z20	X21	Y21	Z21	X22	Y22	Z22	X23	Y23	Z23	X24	Y24	Z24	X25	Y25	Z25	X26	Y26	Z26	X27	Y27	Z27	X28	Y28	Z28	X29	Y29	Z29	X30	Y30	Z30	X31	Y31	Z31	X32	Y32	Z32	X33	Y33	Z33	X34	Y34	Z34	X35	Y35	Z35	X36	Y36	Z36	X37	Y37	Z37	X38	Y38	Z38	X39	Y39	Z39	X40	Y40	Z40	X41	Y41	Z41	X42	Y42	Z42	X43	Y43	Z43	X44	Y44	Z44	X45	Y45	Z45	X46	Y46	Z46	X47	Y47	Z47	X48	Y48	Z48	X49	Y49	Z49	X50	Y50	Z50	X51	Y51	Z51	X52	Y52	Z52	X53	Y53	Z53	X54	Y54	Z54	X55	Y55	Z55	X56	Y56	Z56	X57	Y57	Z57	X58	Y58	Z58	X59	Y59	Z59	

1390	13.89	-27.683849	498.73819	13.584982	-39.825359	492.80829	147.87387	58.240654	704.71466	128.358	47.273823	593.77722	73.117119	13.250725	592.6922	138.93666	-26.053995	501.20883	-62.400646	-76.987869	521.24847	-191.43512	27.47473	719.77594	-181.56943	31.547359	610.47723	-131.63142	-22.234034	605.57892	-191.11021	-67.540207	96.295486	51.347492	-109.32624	79.305214	146.16794	-6.7051148	359.54916	111.02801	-32.993191	244.27687	83.424088	-46.259365	246.92128	145.37444	-82.539009	103.50909	-122.82546	-137.2068	73.549782	-203.18967	-42.929722	344.93655	-182.50044	-53.396904	230.32497	-147.85762	-96.260384	246.5645	-206.27141	-158.08884	52.288452	84.997986	60.712234	46.644592	94.981712	17.970985	26.489292	170.1888	-168.05721	56.695877	-152.6546	24.914167	58.167397	-154.00185	-2.887675	19.701939	-231.12044	-202.4276	995.51868	-17.450644	-16.094393	1026.3534	187.51254	41.276829	994.81689	124.4235	25.18231	985.02496	-141.58102	-47.986393	1021.2219	-212.55832	57.052917	1538.2655	-19.603453	61.586456	1340.7306	-19.494135	-41.045807	1492.4485	171.47057	-73.997307	1503.3204	-178.66794	-119.11713	1155.072	276.90933	-114.33958	1229.7637	271.37625	-31.699102	1229.3331	251.62679	-157.80759	1159.2101	-290.53598	-152.9288	1234.6001	-291.72156	-71.928757	1245.6167	-285.24716	-16.306173	1137.3887	276.14343	3.5315282	1014.3353	292.56519	27.339048	919.07715	301.69623	-41.157627	1118.8622	-303.55734	-24.682426	1030.2242	-315.93564	-1.9190871	944.59082	-322.40274	34.400253	864.76477	310.94226	72.950706	826.31006	275.89062	11.48131	818.78302	327.17078	10.96875	882.74652	-325.57111	44.136509	839.60846	-307.94208	-13.441062	836.0238	-344.3345	-109.8729045	88.529436	-163.007565	-88.4332235	87.80035	98.757716	-41.18160627	897.4395329	-96.21226763	-29.6780625	904.4383065	93.91423684	-51.520932	511.22865	-126.917883	-33.754604	495.77324	80.729426
1391	13.9	-27.567699	498.68564	13.608495	-39.66996	492.76495	148.13127	58.449406	704.6944	128.39606	47.48119	593.75146	73.145447	13.450474	592.66614	138.99213	-25.885208	501.19269	-62.40258	-76.921638	521.22284	-191.39342	27.538782	719.77612	-181.56635	31.656054	610.46552	-131.65215	-22.169991	605.57135	-191.08456	-67.519669	96.269745	51.343361	-109.29033	79.333282	146.17516	-6.5534797	359.5195	110.99263	-32.921677	244.26511	83.404152	-46.086281	246.91234	145.35112	-82.517784	103.49028	-122.8316	-137.22906	73.56002	-203.19002	-42.877258	344.91251	-182.49454	-53.345295	230.31033	-147.86108	-96.228111	246.55499	-206.24573	-158.06287	52.306019	84.989433	60.7519	46.627731	94.990387	17.9967	26.45862	170.18588	-168.04942	56.699112	-152.64174	24.926596	58.162262	-154.00359	-2.8838921	19.704922	-231.10744	-202.09412	995.5238	-17.202597	-15.906271	1026.3367	187.59311	41.450211	994.7771	124.48577	25.296289	985.02844	-141.46855	-47.911903	1021.1534	-212.45786	57.393009	1538.2128	-19.525806	61.796513	1340.6809	-19.413389	-40.714073	1492.4778	171.48705	-73.706543	1503.3207	-178.62743	-118.68191	1155.0503	277.01367	-113.93251	1229.759	271.43579	-31.26679	1229.3479	251.66499	-157.3848	1159.132	-290.47446	-152.58951	1234.5577	-291.71432	-71.560799	1245.5732	-285.16492	-15.886845	1137.4186	276.17224	4.0811739	1014.3597	292.53229	27.895769	919.17761	301.74969	-40.690125	1118.9252	-303.37079	-24.17844	1030.2573	-315.69971	-1.2948599	944.62469	-322.13266	35.046608	864.83185	310.93201	73.580582	826.42444	275.91055	12.084297	818.85876	327.19885	11.669496	882.80017	-325.21988	44.78886	839.69904	-307.65399	-12.717729	836.00867	-344.07379	-109.873422	88.52515	-163.01081	-88.4049995	87.8015135	98.7592605	-41.01903671	897.455425	-96.10913361	-29.47287525	904.4233677	93.98411552	-51.403423	511.207765	-126.898	-33.6188295	495.725295	80.8698825
1392	13.91	-27.402706	498.65656	13.633629	-39.451046	492.74402	147.99673	58.656445	704.68109	128.42967	47.690971	593.78253	73.154709	13.639192	592.65436	139.00514	-25.782751	501.16898	-62.405849	-76.847527	521.21362	-191.34798	27.739529	719.72571	-181.5361	31.767569	610.46887	-131.67279	-22.123684	605.56989	-191.08267	-67.489868	96.260078	51.325626	-109.27411	79.34269	146.16438	-6.4311638	359.49823	110.95094	-32.870449	244.23946	83.367989	-45.973423	246.88812	145.34528	-82.500969	103.49174	-122.82265	-137.22301	73.571678	-203.17947	-42.820942	344.89539	-182.48776	-53.301556	230.30595	-147.85176	-96.200081	246.56844	-206.2421	-158.04608	52.307758	85.002007	60.774551	46.609463	94.992661	18.008949	26.477545	170.18631	-168.03922	56.716015	-152.63344	24.930153	58.163338	-154.01369	-2.8902564	19.695873	-231.10147	-202.08888	995.51862	-17.046799	-15.754254	1026.3306	187.68979	41.622139	994.72961	124.53105	25.379698	985.00958	-141.39348	-47.884796	1021.0761	-212.39899	57.705349	1538.1487	-19.483662	61.989761	1340.6296	-19.35676	-40.408005	1492.5149	171.54204	-73.485039	1503.3037	-178.57785	-118.22313	1155.0381	277.03845	-113.50059	1229.749	271.53204	-30.864338	1229.3861	251.69345	-156.98601	1159.0549	-290.46045	-152.20424	1234.5195	-291.72693	-71.180504	1245.5184	-285.07678	-15.451729	1137.4557	276.21057	4.6132364	1014.4074	292.57892	28.481327	919.24677	301.72064	-40.310349	1118.8606	-303.3215	-23.595074	1030.2937	-315.45016	-0.83548254	944.65002	-321.72629	35.660564	864.87891	310.85107	74.248299	826.57849	275.92114	12.744617	818.94019	327.22849	12.352522	882.867	-324.87408	45.5583	839.83325	-307.28958	-11.990359	836.01135	-343.77982	-109.8619895	88.531709	-163.00106	-88.381989	87.801384	98.745003	-40.95784179	897.4469681	-96.02331489	-29.34832589	904.3944979	94.05002798	-51.315139	511.1913	-126.8769145	-33.426876	495.70029	80.8151795
1393	13.92	-27.320873	498.646	13.683622	-39.314152	492.69641	148.01678	58.880383	704.66187	128.45007	47.88224	593.77618	73.177399	13.796007	592.62543	139.01369	-25.660894	501.14554	-62.40134	-76.791656	521.20349	-191.27742	27.624201	719.76855	-181.55771	31.821478	610.41907	-131.72839	-22.074043	605.55823	-191.05032	-67.477158	96.255859	51.312164	-109.25703	79.358353	146.1671	-6.3522339	359.47226	110.93995	-32.823971	244.20761	83.375175	-45.878338	246.86272	145.33875	-82.484322	103.4866	-122.82322	-137.2261	73.575722	-203.17622	-42.771599	344.87949	-182.47502	-53.263973	230.29192	-147.84918	-96.165291	246.56345	-206.19919	-158.01094	52.298145	84.994743	60.8036	46.604141	95.002083	18.018934	26.47134	170.16872	-168.03581	56.725739	-152.62599	24.930737	58.156467	-154.02803	-2.8839855	19.69743	-231.0988	-198.0327	995.15454	-16.606833	-15.568598	1026.301	187.76617	41.78083	994.7041	124.57506	25.460724	984.98578	-141.31454	-47.850735	1020.9937	-212.29843	57.969296	1538.0472	-19.4568	62.177273	1340.5856	-19.331545	-40.088459	1492.5536	171.57309	-73.250565	1503.2806	-178.53781	-117.912	1155.1215	276.83508	-113.05777	1229.754	271.573	-30.490723	1229.4072	251.7561	-156.56805	1158.9686	-290.43896	-151.74799	1234.4512	-291.73499	-70.775215	1245.5173	-284.97281	-14.956622	1137.4912	276.22089	5.0867352	1014.4506	292.58307	29.024378	919.27808	301.68173	-39.770302	1118.9041	-303.0856	-22.975931	1030.3304	-315.20187	-0.098348223	944.69464	-321.5625	36.220211	864.89978	310.85257	74.871704	826.66681	275.92392	13.431831	819.00427	327.16138	13.021923	882.88446	-324.60672	46.279175	839.89801	-306.92395	-11.210188	835.99152	-343.52637	-109.855211	88.531161	-162.99972	-88.367094	87.807106	98.739632	-39.81953759	897.3318289	-95.9906106	-28.15440841	904.2781966	94.05941307	-51.226275	511.174515	-126.83938	-33.3175125	495.671205	80.850201
1394	13.93	-27.229431	498.64471	13.712109	-39.269997	492.69321	148.21068	59.045357	704.63208	128.49886	47.968395	593.7312	73.214233	13.941279	592.61639	139.06122	-25.491467	501.14255	-62.383007	-76.738503	521.20001	-191.23134	27.84141	719.71936	-181.53242	31.919834	610.40106	-131.731	-22.03302	605.56085	-191.01395	-67.466949	96.250946	51.320698	-109.24831	79.373291	146.1698	-6.300611	359.45349	110.97125	-32.783489	244.18927	83.399284	-45.812649	246.86028	145.35916	-82.198738	103.46168	-122.77686	-137.18028	73.580124	-203.15382	-42.730835	344.87061	-182.47162	-53.231266	230.27293	-147.85878	-96.1455	246.56749	-206.17772	-158.03264	52.318913	84.996124	60.807777	46.595596	95.013153	18.027729	26.459856	170.1835	-168.03018	56.727116	-152.61758	24.93866	58.142643	-154.04021	-2.8851359	19.697369	-231.09064	-197.94272	995.15582	-16.435686	-15.40468	1026.275	187.86974	41.942528	994.68542	124.62582	25.555872	984.96869	-141.23886	-47.813648	1020.9118	-212.23581	58.201958	1537.9288	-19.446733	62.33086	1340.552	-19.308022	-39.805805	1492.5876	171.59119	-73.045952	1503.277	-178.48241	-117.50751	1155.0889	276.87677	-112.66837	1229.7325	271.57352	-30.108187	1229.4263	251.76079	-156.19942	1158.8898	-290.44138	-151.3573	1234.3706	-291.73215	-70.425064	1245.4938	-284.89316	-14.525782	1137.5234	276.2312	5.8691945	1014.5037	292.62347	29.609453	919.3429	301.71558	-39.399891	1118.8174	-302.98843	-22.491653	1030.3663	-315.008	0.56215769	944.75671	-321.25717	36.822926	864.99548	310.84473	75.497902	826.77686	275.93857	14.045089	819.02692	327.15601	13.695412	882.96259	-324.32117	47.023296	840.02997	-306.52917	-10.485514	836.02417	-343.33606	-109.689509	88.520902	-162.96534	-88.3576295	87.8121185	98.745249	-39.7276044	897.3257535	-95.90159946	-28.01483711	904.2710264	94.13175017	-51.114985	511.17128	-126.8071735	-33.249714	495.66896	80.9613945
1395	13.94	-27.225239	498.62231	13.749859	-39.204052	492.68677	148.24651	59.219891	704.61426	128.55269	48.023407	593.64398	73.258781	14.01414	592.57526	139.07927	-25.406401	501.11972	-62.388508	-76.696884	521.20984	-191.2202	27.704096	719.76807	-181.54263	31.965225	610.37616	-131.76799	-22.001486	605.56122	-191.00435	-67.475784	96.255875	51.313263	-109.26779	79.354385	146.16418	-6.2625394	359.44446	111.01368	-32.761993	244.1783	83.434784	-45.815914	246.84402	145.3951	-82.209198	103.4622	-122.78861	-137.18184	73.592194	-203.14098	-42.683834	344.87888	-182.49406	-53.196621	230.27966	-147.85918	-96.122833	246.56358	-206.15062	-158.03336	52.333248	84.992424	60.817398	46.600544	95.020821	18.013317	26.450109	170.19466	-168.02632	56.743286	-152.61504	24.940321	58.149467	-154.04144	-2.8819344	19.708321	-231.09326	-201.63943	995.62091	-16.573065	-15.24292	1026.2538	187.95544	42.100021	994.66766	124.66569	25.598566	984.93353	-141.23175	-47.773071	1020.838	-212.20316	58.459663	1537.804	-19.429039	62.496098	1340.5229	-19.287756	-39.544842	1492.6044	171.61325	-72.845131	1503.2694	-178.4877	-116.99255	1154.955	277.13797	-112.29967	1229.7129	271.5997	-29.698158	1229.476	251.83124	-155.883	1158.7761	-290.40958	-151.41032	1234.2839	-291.75616	-70.092125	1245.5065	-284.77094	-14.137948	1137.5496	276.2572	6.3279276	1014.595	292.63419	30.20306	919.4671	301.74719	-38.978065	1118.8805	-302.75037	-21.9897	1030.3451	-314.85593	1.1932646	944.82159	-321.00171	37.430111	865.07758	310.80856	76.169411	826.9165	275.89447	14.714132	819.05725	327.03729	14.426976	883.05951	-324.05658	47.764397	840.15637	-306.17667	-9.6783037	836.07672	-342.94684	-109.695519	88.527197	-162.964795	-88.371787	87.80513	98.7387215	-40.73341178	897.4259392	-95.79338077	-28.93872601	904.3835683	94.26117812	-51.0516425	511.16478	-126.804354	-33.2146455	495.65454	80.9981845
